<svg width="55" height="55" viewBox="0 0 55 55" fill="none" xmlns="http://www.w3.org/2000/svg">
<path d="M29.7917 52.1354H11.4583C5.91251 52.1354 2.86459 49.0875 2.86459 43.5416V25.2083C2.86459 19.6625 5.91251 16.6146 11.4583 16.6146H22.9167C23.8563 16.6146 24.6354 17.3937 24.6354 18.3333V43.5416C24.6354 47.1625 26.1708 48.6979 29.7917 48.6979C30.7313 48.6979 31.5104 49.4771 31.5104 50.4166C31.5104 51.3562 30.7313 52.1354 29.7917 52.1354ZM11.4583 20.0521C7.83751 20.0521 6.30209 21.5875 6.30209 25.2083V43.5416C6.30209 47.1625 7.83751 48.6979 11.4583 48.6979H22.4583C21.6333 47.3458 21.1979 45.6271 21.1979 43.5416V20.0521H11.4583Z" fill="#002F5B"/>
<path d="M22.9167 20.0521H11.4583C10.5188 20.0521 9.73959 19.2729 9.73959 18.3334V13.75C9.73959 10.2667 12.5583 7.44794 16.0417 7.44794H23.1687C23.6958 7.44794 24.2 7.69997 24.5209 8.11247C24.8417 8.54789 24.9562 9.09794 24.8187 9.60211C24.6812 10.1063 24.6354 10.6792 24.6354 11.4584V18.3334C24.6354 19.2729 23.8563 20.0521 22.9167 20.0521ZM13.1771 16.6146H21.1979V11.4584C21.1979 11.2521 21.1979 11.0688 21.1979 10.8854H16.0417C14.4604 10.8854 13.1771 12.1688 13.1771 13.75V16.6146Z" fill="#002F5B"/>
<path d="M32.0833 31.5104C31.1438 31.5104 30.3646 30.7312 30.3646 29.7916V18.3333C30.3646 17.3937 31.1438 16.6146 32.0833 16.6146C33.0229 16.6146 33.8021 17.3937 33.8021 18.3333V29.7916C33.8021 30.7312 33.0229 31.5104 32.0833 31.5104Z" fill="#002F5B"/>
<path d="M41.25 31.5104C40.3104 31.5104 39.5312 30.7312 39.5312 29.7916V18.3333C39.5312 17.3937 40.3104 16.6146 41.25 16.6146C42.1896 16.6146 42.9688 17.3937 42.9688 18.3333V29.7916C42.9688 30.7312 42.1896 31.5104 41.25 31.5104Z" fill="#002F5B"/>
<path d="M41.25 52.1354H32.0833C31.1438 52.1354 30.3646 51.3562 30.3646 50.4166V41.25C30.3646 39.05 32.175 37.2396 34.375 37.2396H38.9583C41.1583 37.2396 42.9688 39.05 42.9688 41.25V50.4166C42.9688 51.3562 42.1896 52.1354 41.25 52.1354ZM33.8021 48.6979H39.5313V41.25C39.5313 40.9291 39.2792 40.6771 38.9583 40.6771H34.375C34.0542 40.6771 33.8021 40.9291 33.8021 41.25V48.6979Z" fill="#002F5B"/>
<path d="M13.75 40.6771C12.8104 40.6771 12.0312 39.8979 12.0312 38.9584V29.7917C12.0312 28.8521 12.8104 28.0729 13.75 28.0729C14.6896 28.0729 15.4688 28.8521 15.4688 29.7917V38.9584C15.4688 39.8979 14.6896 40.6771 13.75 40.6771Z" fill="#002F5B"/>
<path d="M43.5417 52.1354H29.7917C24.2458 52.1354 21.1979 49.0875 21.1979 43.5416V11.4583C21.1979 5.91248 24.2458 2.86456 29.7917 2.86456H43.5417C49.0875 2.86456 52.1354 5.91248 52.1354 11.4583V43.5416C52.1354 49.0875 49.0875 52.1354 43.5417 52.1354ZM29.7917 6.30206C26.1708 6.30206 24.6354 7.83748 24.6354 11.4583V43.5416C24.6354 47.1625 26.1708 48.6979 29.7917 48.6979H43.5417C47.1625 48.6979 48.6979 47.1625 48.6979 43.5416V11.4583C48.6979 7.83748 47.1625 6.30206 43.5417 6.30206H29.7917Z" fill="#002F5B"/>
</svg>
